<svg width="24" height="24" viewBox="0 0 24 24" fill="none" xmlns="http://www.w3.org/2000/svg">
<path d="M4.14279 17.143H3.35707C2.9403 17.143 2.54061 16.9775 2.2459 16.6827C1.95121 16.3881 1.78564 15.9883 1.78564 15.5715V12.4287C1.78564 12.0119 1.95121 11.6123 2.2459 11.3175C2.54061 11.0228 2.9403 10.8573 3.35707 10.8573H5.71422L6.92422 7.21158C7.03356 6.88632 7.24636 6.60579 7.53011 6.41284C7.81386 6.21988 8.15296 6.12512 8.49564 6.14301H14.7971C15.1398 6.12512 15.4789 6.21988 15.7626 6.41284C16.0464 6.60579 16.2592 6.88632 16.3685 7.21158L17.4999 10.8573H20.6428C21.0595 10.8573 21.4593 11.0228 21.7539 11.3175C22.0486 11.6123 22.2142 12.0119 22.2142 12.4287V15.5715C22.2142 15.9883 22.0486 16.3881 21.7539 16.6827C21.4593 16.9775 21.0595 17.143 20.6428 17.143H19.8571" stroke="#DB1F26" stroke-width="2" stroke-linecap="round" stroke-linejoin="round"/>
<path d="M17.4981 19.4998C16.1955 19.4998 15.1394 18.4438 15.1394 17.1411C15.1394 15.8382 16.1955 14.7822 17.4981 14.7822C18.801 14.7822 19.857 15.8382 19.857 17.1411C19.857 18.4438 18.801 19.4998 17.4981 19.4998Z" stroke="#DB1F26" stroke-width="2" stroke-linecap="round" stroke-linejoin="round"/>
<path d="M6.49821 19.4998C5.19548 19.4998 4.1394 18.4438 4.1394 17.1411C4.1394 15.8384 5.19548 14.7822 6.49821 14.7822C7.80094 14.7822 8.85702 15.8384 8.85702 17.1411C8.85702 18.4438 7.80094 19.4998 6.49821 19.4998Z" stroke="#DB1F26" stroke-width="2" stroke-linecap="round" stroke-linejoin="round"/>
<path d="M15.1396 17.1428H8.85718" stroke="#DB1F26" stroke-width="2" stroke-linecap="round" stroke-linejoin="round"/>
<path d="M12 6.14286V4" stroke="#DB1F26" stroke-width="2" stroke-linecap="round" stroke-linejoin="round"/>
</svg>
