<svg width="24" height="24" viewBox="0 0 24 24" fill="none" xmlns="http://www.w3.org/2000/svg">
<path d="M2.17847 18.3137V6.38767L4.14885 7.96397C5.14397 8.76008 6.3804 9.19379 7.65479 9.19379H11.9999L14.0304 5.13273C14.5058 4.18206 15.4774 3.58154 16.5403 3.58154H17.6121V7.08919L21.8213 8.49226V9.89532C21.8213 11.4451 20.565 12.7014 19.0152 12.7014H16.2091V18.3137C16.2091 19.476 15.2668 20.4183 14.1045 20.4183C12.9422 20.4183 11.9999 19.476 11.9999 18.3137V17.6122C11.9999 16.8373 11.3717 16.2091 10.5968 16.2091H7.79071C7.01583 16.2091 6.38765 16.8373 6.38765 17.6122V18.3137C6.38765 19.476 5.44539 20.4183 4.28307 20.4183C3.12073 20.4183 2.17847 19.476 2.17847 18.3137Z" stroke="#DB1F26" stroke-width="2" stroke-linecap="round" stroke-linejoin="round"/>
<path d="M12.0186 9.00977C12.2943 10.1361 13.5903 12.4592 16.5684 12.7417" stroke="#DB1F26" stroke-width="2" stroke-linecap="round" stroke-linejoin="round"/>
</svg>
