<svg width="24" height="24" viewBox="0 0 24 24" fill="none" xmlns="http://www.w3.org/2000/svg">
<path d="M6.76704 1.78567C6.37857 1.78332 6.00298 1.92494 5.71278 2.18322C5.42257 2.4415 5.23834 2.79812 5.19561 3.18425C5.02275 4.84996 4.92847 7.36425 4.92847 8.07139C4.92847 12.1885 8.07132 14.3571 11.9999 14.3571C15.9285 14.3571 19.0713 12.1885 19.0713 8.07139C19.0713 7.36425 18.977 4.92853 18.8042 3.18425C18.7614 2.79812 18.5773 2.4415 18.287 2.18322C17.9968 1.92494 17.6212 1.78332 17.2328 1.78567H6.76704Z" stroke="#DB1F26" stroke-width="2" stroke-linecap="round" stroke-linejoin="round"/>
<path d="M4.97363 6.5H19.0249" stroke="#DB1F26" stroke-width="2" stroke-linecap="round" stroke-linejoin="round"/>
<path d="M12 14.3572V22.2143" stroke="#DB1F26" stroke-width="2" stroke-linecap="round" stroke-linejoin="round"/>
<path d="M8.85693 22.2141H15.1426" stroke="#DB1F26" stroke-width="2" stroke-linecap="round" stroke-linejoin="round"/>
</svg>
