<svg width="24" height="24" viewBox="0 0 24 24" fill="none" xmlns="http://www.w3.org/2000/svg">
<g clip-path="url(#clip0_2493_402)">
<path d="M20.1427 12.7856H7.28847L5.71704 4.92847H21.4313C21.5463 4.92889 21.6596 4.95451 21.7636 5.00353C21.8675 5.05255 21.9594 5.12378 22.0328 5.21219C22.1064 5.30058 22.1595 5.40403 22.1886 5.51519C22.2176 5.62637 22.222 5.74256 22.2013 5.85561L20.9127 12.1413C20.8827 12.3231 20.7884 12.488 20.6471 12.6062C20.5059 12.7244 20.3269 12.7881 20.1427 12.7856Z" stroke="#DB1F26" stroke-width="2" stroke-linecap="round" stroke-linejoin="round"/>
<path d="M5.71714 4.9285L5.05714 2.41422C5.02092 2.23675 4.92448 2.07724 4.78417 1.9627C4.64386 1.84815 4.46828 1.78561 4.28714 1.78564H1.78857" stroke="#DB1F26" stroke-width="2" stroke-linecap="round" stroke-linejoin="round"/>
<path d="M7.28857 12.7856L7.94857 16.0856C7.9848 16.2631 8.08123 16.4226 8.22155 16.5372C8.36186 16.6517 8.53745 16.7142 8.71857 16.7142H18.2885" stroke="#DB1F26" stroke-width="2" stroke-linecap="round" stroke-linejoin="round"/>
<path d="M17.5028 22.2143C17.0689 22.2143 16.717 21.8624 16.717 21.4285C16.717 20.9947 17.0689 20.6428 17.5028 20.6428C17.9368 20.6428 18.2885 20.9947 18.2885 21.4285C18.2885 21.8624 17.9368 22.2143 17.5028 22.2143Z" stroke="#DB1F26" stroke-width="2" stroke-linecap="round" stroke-linejoin="round"/>
<path d="M9.64582 22.2143C9.21189 22.2143 8.86011 21.8624 8.86011 21.4285C8.86011 20.9947 9.21189 20.6428 9.64582 20.6428C10.0798 20.6428 10.4315 20.9947 10.4315 21.4285C10.4315 21.8624 10.0798 22.2143 9.64582 22.2143Z" stroke="#DB1F26" stroke-width="2" stroke-linecap="round" stroke-linejoin="round"/>
</g>
<defs>
<clipPath id="clip0_2493_402">
<rect width="24" height="24" fill="white"/>
</clipPath>
</defs>
</svg>
