<svg width="24" height="24" viewBox="0 0 24 24" fill="none" xmlns="http://www.w3.org/2000/svg">
<path d="M16.1998 7.63178C16.0352 8.35069 16.1629 9.10554 16.5549 9.73029C16.9468 10.355 17.5708 10.7985 18.2898 10.9631C19.0087 11.1278 19.7635 11.0001 20.3883 10.6081C21.013 10.2162 21.4565 9.59212 21.6211 8.87322C21.7857 8.15431 21.658 7.39945 21.2661 6.7747C20.8742 6.14995 20.2501 5.70649 19.5312 5.54186C18.8123 5.37724 18.0574 5.50494 17.4327 5.89687C16.8079 6.28881 16.3645 6.91287 16.1998 7.63178Z" stroke="#DB1F26" stroke-width="2" stroke-linecap="round" stroke-linejoin="round"/>
<path d="M3.58277 3.44995H1.83276V9.19995C1.83276 12.0442 4.13849 14.35 6.98277 14.35C9.82702 14.35 12.1328 12.0442 12.1328 9.19995V3.44995H10.3828" stroke="#DB1F26" stroke-width="2" stroke-linecap="round" stroke-linejoin="round"/>
<path d="M7.08276 14.3999V16.3323C7.08276 19.6005 9.73216 22.2498 13.0003 22.2498C16.2685 22.2498 18.9179 19.6005 18.9179 16.3323V11.3499" stroke="#DB1F26" stroke-width="2" stroke-linecap="round" stroke-linejoin="round"/>
</svg>
