<svg width="200" height="42" viewBox="0 0 200 42" fill="none" xmlns="http://www.w3.org/2000/svg">
<g clip-path="url(#clip0_2732_25781)">
<path d="M38 19C38 29.4932 29.4932 38 19 38C8.50683 38 0 29.4932 0 19C0 8.50683 8.50683 0 19 0C29.4932 0 38 8.50683 38 19Z" fill="#DB1F26"/>
<path d="M18.8949 27.8769C17.652 27.8769 16.4812 27.6427 15.3885 27.1744C14.2957 26.7061 13.3471 26.0636 12.5305 25.2531C11.714 24.4365 11.0775 23.4879 10.6092 22.3951C10.1409 21.3024 9.90674 20.1376 9.90674 18.8887C9.90674 17.6399 10.1409 16.4751 10.6092 15.3824C11.0775 14.2896 11.72 13.341 12.5305 12.5244C13.3471 11.7079 14.2957 11.0714 15.3885 10.6031C16.4812 10.1348 17.646 9.90063 18.8949 9.90063C20.1437 9.90063 21.3085 10.1348 22.4012 10.6031C23.494 11.0714 24.4426 11.7139 25.2592 12.5244C26.0757 13.341 26.7122 14.2896 27.1805 15.3824C27.6488 16.4751 27.883 17.6399 27.883 18.8887V27.8709H23.3919V18.8887C23.3919 18.2643 23.2718 17.6879 23.0317 17.1476C22.7915 16.6072 22.4673 16.1389 22.059 15.7306C21.6507 15.3223 21.1764 14.9981 20.642 14.7579C20.1017 14.5178 19.5193 14.3977 18.9009 14.3977C18.2824 14.3977 17.7 14.5178 17.1597 14.7579C16.6193 14.9981 16.145 15.3223 15.7427 15.7306C15.3344 16.1389 15.0102 16.6132 14.77 17.1476C14.5299 17.6879 14.4098 18.2703 14.4098 18.8887C14.4098 19.5072 14.5299 20.0896 14.77 20.6299C15.0102 21.1703 15.3344 21.6446 15.7427 22.0469C16.151 22.4552 16.6253 22.7794 17.1597 23.0196C17.7 23.2597 18.2764 23.3798 18.9009 23.3798V27.8709L18.8949 27.8769Z" fill="white"/>
<path d="M128.949 41.1295H127.886V31.6851H128.949V41.1295Z" fill="#DB1F26"/>
<path d="M110.739 9.89465H106.248V27.8649H110.739V9.89465Z" fill="#333333"/>
<path d="M110.739 2.70776H106.248V8.09943H110.739V2.70776Z" fill="#333333"/>
<path d="M153.073 23.3558C153.65 23.3558 154.214 23.2478 154.767 23.0376H154.755C155.307 22.8275 155.805 22.4972 156.244 22.059L159.42 25.2351C158.543 26.1177 157.546 26.7782 156.448 27.2165C155.349 27.6548 154.22 27.8769 153.067 27.8769C151.915 27.8769 150.786 27.6548 149.687 27.2165C149.111 26.9823 148.558 26.6881 148.042 26.3339C147.562 26.0096 147.111 25.6434 146.697 25.2291C146.061 24.5927 145.538 23.8782 145.112 23.0736L145.094 23.0376C144.98 22.8215 144.872 22.5993 144.776 22.3712C144.367 21.4165 144.133 20.3958 144.085 19.3151C144.073 19.171 144.073 19.0269 144.073 18.8828V18.8768C144.073 17.6279 144.307 16.4631 144.776 15.3704C145.244 14.2777 145.88 13.329 146.697 12.5125C147.514 11.7019 148.462 11.0595 149.555 10.5911C150.648 10.1228 151.819 9.88867 153.061 9.88867H153.073C153.217 9.88867 153.362 9.89468 153.506 9.90068C154.586 9.94871 155.607 10.1829 156.568 10.5911C156.796 10.6932 157.012 10.7953 157.228 10.9094C157.241 10.9177 157.253 10.9232 157.264 10.9278C157.268 10.9298 157.273 10.9316 157.276 10.9334C158.075 11.3597 158.789 11.882 159.426 12.5185C160.236 13.335 160.879 14.2837 161.347 15.3764L157.546 18.6126L154.274 21.3925L151.362 17.9702L155.025 14.854C154.995 14.8361 154.965 14.818 154.929 14.8C154.918 14.7952 154.907 14.7906 154.896 14.7861C154.88 14.7795 154.864 14.7733 154.848 14.767L154.813 14.7534C154.797 14.7472 154.782 14.7408 154.767 14.734C154.214 14.5238 153.65 14.4158 153.073 14.4158C152.497 14.4158 151.939 14.5238 151.386 14.734C151.194 14.806 151.008 14.8961 150.828 14.9981C150.798 15.0102 150.774 15.0222 150.75 15.0402C150.744 15.0462 150.732 15.0522 150.732 15.0522C150.432 15.2383 150.155 15.4605 149.903 15.7126C149.651 15.9648 149.429 16.247 149.243 16.5472C149.237 16.5532 149.231 16.5652 149.231 16.5652C149.223 16.5836 149.214 16.5997 149.205 16.615C149.199 16.6246 149.193 16.634 149.189 16.6433C149.087 16.8234 148.997 17.0095 148.925 17.2016C148.714 17.748 148.606 18.3124 148.606 18.8888C148.606 19.4712 148.714 20.0296 148.925 20.5819C148.943 20.636 148.967 20.69 148.991 20.7441C149.225 21.2304 149.525 21.6627 149.903 22.0409C150.305 22.4492 150.78 22.7734 151.32 23.0136C151.353 23.0255 151.386 23.039 151.419 23.0524L151.42 23.0528L151.459 23.0688C151.479 23.0767 151.499 23.0845 151.518 23.0917L151.572 23.1097C151.584 23.1157 151.59 23.1157 151.596 23.1157C152.077 23.2778 152.569 23.3558 153.073 23.3558Z" fill="#333333"/>
<path d="M141.414 23.0136C140.873 22.7734 140.399 22.4492 139.997 22.0409C139.589 21.6326 139.264 21.1583 139.024 20.624C138.784 20.0896 138.664 19.5072 138.664 18.8828V15.9588H141.786V11.4677H138.664V2.70776H134.173V18.8828C134.173 20.1256 134.407 21.2964 134.875 22.3892C135.344 23.4819 135.986 24.4305 136.797 25.2471C137.613 26.0637 138.562 26.7001 139.655 27.1684C140.747 27.6367 141.912 27.8709 143.161 27.8709V23.3798C142.537 23.3798 141.96 23.2597 141.42 23.0196L141.414 23.0136Z" fill="#333333"/>
<path d="M173.385 14.7281C173.938 14.9382 174.436 15.2684 174.874 15.7067V15.7127L178.051 12.5366C177.168 11.654 176.177 10.9935 175.079 10.5552C173.98 10.1169 172.851 9.89478 171.698 9.89478C170.545 9.89478 169.417 10.1169 168.318 10.5552C167.219 10.9935 166.229 11.654 165.346 12.5366C164.463 13.4192 163.803 14.4098 163.365 15.5086C162.926 16.6073 162.704 17.7361 162.704 18.8889C162.704 20.0417 162.926 21.1704 163.365 22.2692C163.803 23.3679 164.463 24.3586 165.346 25.2412C166.222 26.1178 167.213 26.7843 168.318 27.2226C169.423 27.6609 170.545 27.883 171.698 27.883C172.851 27.883 173.974 27.6609 175.079 27.2226C176.177 26.7843 177.168 26.1238 178.051 25.2412L174.874 22.0651C174.43 22.5034 173.938 22.8336 173.385 23.0437C172.833 23.2539 172.269 23.3619 171.692 23.3619C171.122 23.3619 170.557 23.2539 170.005 23.0437C169.453 22.8336 168.954 22.5034 168.516 22.0651C168.078 21.6208 167.748 21.1284 167.537 20.576C167.321 20.0297 167.219 19.4653 167.219 18.8889C167.219 18.3065 167.327 17.7481 167.537 17.1957C167.748 16.6434 168.078 16.145 168.516 15.7067C168.96 15.2684 169.453 14.9382 170.005 14.7281C170.551 14.5179 171.116 14.4098 171.692 14.4098C172.269 14.4098 172.833 14.5179 173.385 14.7281Z" fill="#333333"/>
<path d="M198.543 15.3764C198.074 14.2836 197.432 13.335 196.621 12.5184C195.805 11.7019 194.856 11.0654 193.763 10.5971C192.671 10.1288 191.506 9.89465 190.257 9.89465C188.63 9.89465 187.129 10.3029 185.766 11.1135V2.70776H181.275V27.8769H185.766V18.8828C185.766 18.2583 185.886 17.6819 186.126 17.1416C186.366 16.6012 186.691 16.1269 187.099 15.7246C187.507 15.3163 187.981 14.9921 188.516 14.752C189.056 14.5118 189.633 14.3917 190.257 14.3917C190.881 14.3917 191.464 14.5118 191.998 14.752C192.539 14.9921 193.007 15.3163 193.415 15.7246C193.823 16.1329 194.148 16.6072 194.388 17.1416C194.628 17.6819 194.748 18.2643 194.748 18.8828V27.8649H199.239V18.8828C199.239 17.6399 199.005 16.4691 198.537 15.3764H198.543Z" fill="#333333"/>
<path d="M50.4817 27.1624C51.5745 27.6307 52.7453 27.8649 53.9881 27.8649L53.9941 27.8589V23.3678C53.3697 23.3678 52.7933 23.2478 52.2529 23.0076C51.7186 22.7674 51.2442 22.4432 50.836 22.0349C50.4277 21.6327 50.1035 21.1583 49.8633 20.618C49.6231 20.0776 49.5031 19.4952 49.5031 18.8768C49.5031 18.2584 49.6231 17.676 49.8633 17.1356C50.1035 16.6012 50.4277 16.1269 50.836 15.7186C51.2382 15.3104 51.7126 14.9861 52.2529 14.746C52.7933 14.5058 53.3757 14.3857 53.9941 14.3857C54.6125 14.3857 55.1949 14.5058 55.7353 14.746C56.2697 14.9861 56.744 15.3104 57.1523 15.7186C57.5605 16.1209 57.8848 16.5952 58.1249 17.1356C58.3651 17.676 58.4852 18.2524 58.4852 18.8768V27.8589H62.9762V18.8768C62.9762 17.6279 62.7421 16.4631 62.2738 15.3704C61.8054 14.2777 61.169 13.329 60.3524 12.5125C59.5359 11.7019 58.5872 11.0595 57.4945 10.5911C56.4018 10.1228 55.237 9.88867 53.9881 9.88867C52.7393 9.88867 51.5745 10.1228 50.4817 10.5911C49.389 11.0595 48.4343 11.6959 47.6238 12.5125C46.8132 13.329 46.1708 14.2777 45.7025 15.3704C45.2342 16.4631 45 17.6279 45 18.8768C45 20.1256 45.2342 21.2904 45.7025 22.3832C46.1708 23.4759 46.8072 24.4246 47.6238 25.2411C48.4403 26.0517 49.389 26.6941 50.4817 27.1624Z" fill="#333333"/>
<path d="M69.3346 9.89478V18.8829C69.3346 19.5073 69.4547 20.0837 69.6948 20.6241C69.935 21.1644 70.2592 21.6388 70.6675 22.041C71.0758 22.4493 71.5501 22.7735 72.0845 23.0137C72.6248 23.2539 73.2072 23.3739 73.8257 23.3739C74.4441 23.3739 75.0325 23.2539 75.5668 23.0137C76.1072 22.7735 76.5755 22.4493 76.9838 22.041C77.3921 21.6328 77.7163 21.1584 77.9565 20.6241C78.1966 20.0837 78.3167 19.5013 78.3167 18.8829V9.89478H82.8078V18.8829C82.8078 20.1257 82.5736 21.2965 82.1053 22.3893C81.637 23.482 80.9945 24.4307 80.184 25.2472C79.3674 26.0638 78.4188 26.7002 77.326 27.1685C76.2333 27.6368 75.0685 27.871 73.8197 27.871C72.5708 27.871 71.406 27.6368 70.3133 27.1685C69.2205 26.7002 68.2719 26.0638 67.4553 25.2472C66.6388 24.4307 65.9963 23.482 65.534 22.3893C65.0657 21.2965 64.8315 20.1317 64.8315 18.8829V9.89478H69.3346Z" fill="#333333"/>
<path d="M91.9281 14.752C92.4684 14.5118 93.0448 14.3917 93.6693 14.3917V9.89465C92.4204 9.89465 91.2556 10.1288 90.1629 10.5971C89.0701 11.0654 88.1215 11.7019 87.3049 12.5184C86.4944 13.335 85.8519 14.2836 85.3836 15.3764C84.9153 16.4691 84.6812 17.6339 84.6812 18.8828C84.6812 20.1316 84.9153 21.2964 85.3836 22.3892C85.8519 23.4819 86.4884 24.4305 87.3049 25.2471C88.1215 26.0576 89.0701 26.7001 90.1629 27.1684C91.2556 27.6367 92.4204 27.8709 93.6693 27.8709C94.9181 27.8709 96.0829 27.6367 97.1757 27.1684C98.2684 26.7001 99.217 26.0637 100.034 25.2471C100.844 24.4305 101.487 23.4819 101.955 22.3892C102.423 21.2964 102.657 20.1316 102.657 18.8828V2.70776H98.1663V18.8828C98.1663 19.5072 98.0462 20.0836 97.8061 20.624C97.5659 21.1583 97.2417 21.6326 96.8334 22.0409C96.4251 22.4492 95.9508 22.7734 95.4104 23.0136C94.8761 23.2537 94.2877 23.3738 93.6693 23.3738C93.0508 23.3738 92.4684 23.2537 91.9281 23.0136C91.3937 22.7734 90.9194 22.4492 90.5111 22.0409C90.1028 21.6386 89.7786 21.1643 89.5385 20.624C89.2983 20.0896 89.1782 19.5012 89.1782 18.8828C89.1782 18.2643 89.2983 17.6819 89.5385 17.1416C89.7786 16.6072 90.1088 16.1329 90.5111 15.7246C90.9134 15.3163 91.3877 14.9921 91.9281 14.752Z" fill="#333333"/>
<path fill-rule="evenodd" clip-rule="evenodd" d="M114.335 18.8829C114.335 17.64 114.569 16.4692 115.037 15.3765C115.506 14.2838 116.148 13.3351 116.959 12.5186C117.775 11.702 118.724 11.0656 119.817 10.5973C120.909 10.1289 122.074 9.89478 123.323 9.89478C124.572 9.89478 125.737 10.1289 126.829 10.5973C127.922 11.0656 128.871 11.708 129.687 12.5186C130.504 13.3351 131.14 14.2838 131.609 15.3765C132.077 16.4692 132.311 17.634 132.311 18.8829C132.311 20.1317 132.077 21.2965 131.609 22.3893C131.14 23.482 130.498 24.4307 129.687 25.2472C128.871 26.0638 127.922 26.7002 126.829 27.1685C125.737 27.6368 124.572 27.871 123.323 27.871C122.074 27.871 120.909 27.6368 119.817 27.1685C118.724 26.7002 117.775 26.0578 116.959 25.2472C116.142 24.4307 115.506 23.482 115.037 22.3893C114.569 21.2965 114.335 20.1317 114.335 18.8829ZM118.826 18.8829C118.826 19.5073 118.946 20.0837 119.186 20.6241C119.426 21.1644 119.751 21.6388 120.159 22.041C120.567 22.4493 121.042 22.7735 121.576 23.0137C122.116 23.2539 122.693 23.3739 123.317 23.3739C123.941 23.3739 124.524 23.2539 125.058 23.0137C125.599 22.7735 126.067 22.4493 126.475 22.041C126.883 21.6328 127.208 21.1584 127.448 20.6241C127.688 20.0897 127.808 19.5073 127.808 18.8829C127.808 18.2585 127.688 17.6821 127.448 17.1417C127.208 16.6013 126.883 16.127 126.475 15.7187C126.067 15.3105 125.593 14.9862 125.058 14.7461C124.518 14.5059 123.935 14.3858 123.317 14.3858C122.699 14.3858 122.116 14.5059 121.576 14.7461C121.036 14.9862 120.561 15.3105 120.159 15.7187C119.751 16.127 119.426 16.6013 119.186 17.1417C118.946 17.6821 118.826 18.2645 118.826 18.8829Z" fill="#333333"/>
<path fill-rule="evenodd" clip-rule="evenodd" d="M45.0059 37.1186C45.0059 37.8932 45.276 38.5536 45.8164 39.094L45.8104 39.082C46.3508 39.6284 47.0112 39.8985 47.7918 39.8985C48.3381 39.8985 48.8365 39.7604 49.2928 39.4722C49.7491 39.1841 50.0973 38.8058 50.3375 38.3375L49.0646 38.3255C48.7284 38.6857 48.2961 38.8658 47.7617 38.8658C47.3294 38.8658 46.9632 38.7397 46.663 38.4816C46.3628 38.2294 46.1887 37.8992 46.1466 37.4909H50.5356C50.5536 37.3468 50.5656 37.1847 50.5656 37.0046C50.5356 36.194 50.2474 35.5456 49.695 35.0472C49.1427 34.5489 48.5363 34.3027 47.7617 34.3027C46.9872 34.3027 46.3388 34.5789 45.8044 35.1313C45.27 35.6837 45.0059 36.3441 45.0059 37.1186ZM49.4249 36.6323H46.1466C46.2487 36.2481 46.4468 35.9358 46.741 35.6957C47.0292 35.4555 47.3835 35.3354 47.7978 35.3354C48.182 35.3354 48.5243 35.4615 48.8245 35.7017C49.1247 35.9479 49.3228 36.2541 49.4249 36.6323Z" fill="#333333"/>
<path d="M54.5588 39.9105C53.7843 39.9105 53.1238 39.6344 52.5774 39.088C52.0311 38.5416 51.7549 37.8812 51.7549 37.1066C51.7549 36.3321 52.0251 35.6717 52.5774 35.1253C53.1238 34.5789 53.7843 34.3027 54.5588 34.3027C55.1472 34.3027 55.6755 34.4708 56.1439 34.8011C56.6122 35.1373 56.9484 35.5636 57.1405 36.0919H55.9998C55.6575 35.5876 55.1832 35.3294 54.5648 35.3294C54.0665 35.3294 53.6462 35.4975 53.3159 35.8398C52.9857 36.182 52.8176 36.6023 52.8176 37.1006C52.8176 37.599 52.9857 38.0133 53.3219 38.3555C53.6582 38.6977 54.0725 38.8718 54.5648 38.8718C55.1712 38.8718 55.6455 38.6257 55.9758 38.1333H57.1345C56.9364 38.6617 56.6062 39.088 56.1379 39.4122C55.6695 39.7364 55.1412 39.8985 54.5528 39.8985L54.5588 39.9105Z" fill="#333333"/>
<path d="M62.7902 35.3954V34.3987H57.9028V35.3954H59.8121V39.8264H60.8749V35.3954H62.7902Z" fill="#333333"/>
<path d="M66.2606 41.9999C65.7202 41.9999 65.2459 41.8498 64.8376 41.5435C64.4353 41.2373 64.1351 40.8291 63.949 40.3187H65.1438C65.402 40.751 65.7742 40.9732 66.2606 40.9732C66.6689 40.9732 66.9871 40.8531 67.2212 40.6129C67.4554 40.3727 67.5755 40.0665 67.5755 39.6883V39.3941C67.2512 39.7423 66.813 39.9164 66.2606 39.9164C65.5341 39.9164 64.9577 39.6943 64.5254 39.25C64.0931 38.8057 63.877 38.1392 63.877 37.2566V34.3987H64.9397V37.2566C64.9397 38.3434 65.384 38.8837 66.2666 38.8837C66.6929 38.8837 67.0231 38.7516 67.2512 38.4935C67.4794 38.2353 67.5935 37.839 67.5935 37.3227V34.4047H68.6562V39.5622C68.6562 40.2647 68.4341 40.8471 67.9837 41.3094C67.5334 41.7717 66.9631 42.0059 66.2666 42.0059L66.2606 41.9999Z" fill="#333333"/>
<path fill-rule="evenodd" clip-rule="evenodd" d="M76.2272 34.3147C75.4527 34.3147 74.7923 34.5849 74.2459 35.1313C73.6935 35.6776 73.4233 36.3381 73.4233 37.1126C73.4233 37.8871 73.6995 38.5476 74.2459 39.0939C74.7923 39.6463 75.4527 39.9165 76.2272 39.9165C77.0018 39.9165 77.6622 39.6403 78.2086 39.0939C78.755 38.5476 79.0252 37.8871 79.0252 37.1126C79.0252 36.3381 78.755 35.6776 78.2086 35.1313C77.6622 34.5909 77.0018 34.3147 76.2272 34.3147ZM74.9904 35.8517C75.3206 35.5095 75.7409 35.3414 76.2393 35.3414C76.7316 35.3414 77.1399 35.5095 77.4701 35.8517C77.8003 36.194 77.9624 36.6143 77.9624 37.1126C77.9624 37.6109 77.8003 38.0312 77.4701 38.3735C77.1399 38.7157 76.7316 38.8838 76.2393 38.8838C75.7469 38.8838 75.3326 38.7097 74.9964 38.3675C74.6602 38.0252 74.4921 37.6109 74.4921 37.1126C74.4921 36.6143 74.6602 36.194 74.9904 35.8517Z" fill="#333333"/>
<path fill-rule="evenodd" clip-rule="evenodd" d="M80.2739 37.1126C80.2739 36.3381 80.5441 35.6776 81.0905 35.1313C81.6309 34.5849 82.2913 34.3147 83.0658 34.3147C83.8403 34.3147 84.5008 34.5909 85.0472 35.1313C85.5935 35.6776 85.8637 36.3381 85.8637 37.1126C85.8637 37.8871 85.5935 38.5476 85.0472 39.0939C84.5008 39.6403 83.8403 39.9165 83.0658 39.9165C82.3633 39.9165 81.793 39.6583 81.3487 39.136V41.9999H80.2739V37.1126ZM83.0658 38.8838C83.5582 38.8838 83.9724 38.7157 84.3027 38.3735C84.6329 38.0312 84.801 37.6109 84.801 37.1126C84.801 36.6143 84.6389 36.194 84.3087 35.8517C83.9784 35.5095 83.5642 35.3414 83.0658 35.3414C82.5675 35.3414 82.1592 35.5095 81.829 35.8517C81.4928 36.194 81.3306 36.6143 81.3306 37.1126C81.3306 37.6109 81.4988 38.0252 81.835 38.3675C82.1712 38.7097 82.5795 38.8838 83.0658 38.8838Z" fill="#333333"/>
<path d="M91.5674 35.3954V34.3987H86.686V35.3954H88.5953V39.8264H89.6581V35.3954H91.5674Z" fill="#333333"/>
<path fill-rule="evenodd" clip-rule="evenodd" d="M95.1822 39.9165C94.4076 39.9165 93.7472 39.6463 93.2008 39.0939C92.6545 38.5476 92.3843 37.8871 92.3843 37.1126C92.3843 36.3381 92.6545 35.6776 93.2008 35.1313C93.7472 34.5849 94.4076 34.3147 95.1822 34.3147C95.9567 34.3147 96.6172 34.5909 97.1575 35.1313C97.6979 35.6776 97.9741 36.3381 97.9741 37.1126V39.8264H96.9114V38.9679C96.7793 39.238 96.5571 39.4602 96.2329 39.6403C95.9087 39.8204 95.5604 39.9105 95.1882 39.9105L95.1822 39.9165ZM93.9513 38.3675C94.2876 38.7097 94.7019 38.8838 95.1942 38.8838C95.6865 38.8838 96.0948 38.7157 96.425 38.3735C96.7552 38.0312 96.9174 37.6109 96.9174 37.1126C96.9174 36.6143 96.7552 36.194 96.425 35.8517C96.0948 35.5095 95.6865 35.3414 95.1942 35.3414C94.7019 35.3414 94.2816 35.5095 93.9453 35.8517C93.6091 36.194 93.447 36.6143 93.447 37.1126C93.447 37.6109 93.6151 38.0252 93.9513 38.3675Z" fill="#333333"/>
<path d="M104.543 34.4047V34.3987L104.549 34.4047H104.543Z" fill="#333333"/>
<path d="M104.543 34.4047V39.8264H103.48V35.3954H101.198L101.048 37.2206C100.982 38.0732 100.82 38.7216 100.556 39.1659C100.292 39.6102 99.8714 39.8264 99.289 39.8264H99.0068V38.8297H99.211C99.4511 38.8297 99.6253 38.7096 99.7453 38.4695C99.8594 38.2293 99.9375 37.815 99.9855 37.2266L100.226 34.4047H104.543Z" fill="#333333"/>
<path d="M111.645 39.8264H110.583V34.3987H111.645V39.8264Z" fill="#333333"/>
<path fill-rule="evenodd" clip-rule="evenodd" d="M109.97 38.0792C109.97 38.6496 109.778 39.0879 109.388 39.3821C108.998 39.6763 108.487 39.8264 107.851 39.8264H105.839V34.3987H106.902V36.29H107.845C108.487 36.29 109.004 36.4341 109.388 36.7283C109.772 37.0225 109.964 37.4728 109.964 38.0792H109.97ZM107.887 38.8297C108.241 38.8297 108.499 38.7757 108.661 38.6616C108.823 38.5475 108.907 38.3554 108.907 38.0792C108.907 37.5448 108.565 37.2746 107.887 37.2746H106.908V38.8297H107.887Z" fill="#333333"/>
<path d="M116.202 35.3954V34.3987H112.948V36.4282H112.39V37.1367H112.948V39.8264H114.01V37.1367H115.134V36.4282H114.01V35.3954H116.202Z" fill="#333333"/>
<path d="M123.053 39.8264H121.99V34.3987H123.053V39.8264Z" fill="#333333"/>
<path fill-rule="evenodd" clip-rule="evenodd" d="M121.378 38.0792C121.378 38.6496 121.186 39.0879 120.795 39.3821C120.405 39.6763 119.895 39.8264 119.258 39.8264H117.247V34.3987H118.31V36.29H119.252C119.895 36.29 120.411 36.4341 120.795 36.7283C121.18 37.0225 121.372 37.4728 121.372 38.0792H121.378ZM119.294 38.8297C119.649 38.8297 119.907 38.7757 120.069 38.6616C120.231 38.5475 120.315 38.3554 120.315 38.0792C120.315 37.5448 119.973 37.2746 119.294 37.2746H118.316V38.8297H119.294Z" fill="#333333"/>
<path d="M139.174 38.8297H138.417V34.3987H137.355V38.8297H134.845V34.3987H133.782V39.8264H138.111V41.3154H139.174V38.8297Z" fill="#333333"/>
<path fill-rule="evenodd" clip-rule="evenodd" d="M140.951 39.094C140.411 38.5536 140.141 37.8932 140.141 37.1186C140.141 36.3441 140.405 35.6837 140.939 35.1313C141.474 34.5789 142.122 34.3027 142.896 34.3027C143.671 34.3027 144.277 34.5489 144.83 35.0472C145.382 35.5456 145.67 36.194 145.7 37.0046C145.7 37.1847 145.688 37.3468 145.664 37.4909H141.275C141.317 37.8992 141.492 38.2294 141.792 38.4816C142.092 38.7397 142.458 38.8658 142.896 38.8658C143.431 38.8658 143.869 38.6857 144.199 38.3255L145.472 38.3375C145.232 38.8058 144.884 39.1841 144.428 39.4722C143.971 39.7604 143.473 39.8985 142.927 39.8985C142.146 39.8985 141.486 39.6284 140.945 39.082L140.951 39.094ZM141.281 36.6323H144.56C144.458 36.2541 144.259 35.9479 143.959 35.7017C143.659 35.4615 143.317 35.3354 142.933 35.3354C142.518 35.3354 142.17 35.4555 141.876 35.6957C141.582 35.9358 141.383 36.2481 141.281 36.6323Z" fill="#333333"/>
<path d="M151.728 34.3987H150.66V36.4281H148.012V34.3987H146.949V39.8264H148.012V37.4247H150.66V39.8264H151.728V34.3987Z" fill="#333333"/>
<path d="M157.697 34.3987V35.3954H155.788V39.8264H154.725V35.3954H152.81V34.3987H157.697Z" fill="#333333"/>
<path fill-rule="evenodd" clip-rule="evenodd" d="M159.456 35.1313C158.909 35.6776 158.639 36.3381 158.639 37.1126V41.9999H159.714V39.136C160.158 39.6583 160.729 39.9165 161.431 39.9165C162.206 39.9165 162.866 39.6403 163.412 39.0939C163.959 38.5476 164.235 37.8871 164.235 37.1126C164.235 36.3381 163.959 35.6776 163.412 35.1313C162.866 34.5909 162.206 34.3147 161.431 34.3147C160.657 34.3147 159.996 34.5849 159.456 35.1313ZM162.668 38.3735C162.338 38.7157 161.923 38.8838 161.431 38.8838C160.945 38.8838 160.536 38.7097 160.2 38.3675C159.864 38.0252 159.696 37.6109 159.696 37.1126C159.696 36.6143 159.858 36.194 160.194 35.8517C160.524 35.5095 160.933 35.3414 161.431 35.3414C161.929 35.3414 162.344 35.5095 162.674 35.8517C163.004 36.194 163.166 36.6143 163.166 37.1126C163.166 37.6109 163.004 38.0312 162.668 38.3735Z" fill="#333333"/>
<path d="M171.758 39.9105C170.983 39.9105 170.323 39.6344 169.777 39.088C169.23 38.5416 168.954 37.8812 168.954 37.1066C168.954 36.3321 169.23 35.6717 169.777 35.1253C170.323 34.5789 170.983 34.3027 171.758 34.3027C172.346 34.3027 172.875 34.4708 173.343 34.8011C173.811 35.1373 174.148 35.5636 174.34 36.0919H173.199C172.857 35.5876 172.382 35.3294 171.764 35.3294C171.266 35.3294 170.845 35.4975 170.515 35.8398C170.179 36.182 170.017 36.6023 170.017 37.1006C170.017 37.599 170.185 38.0133 170.521 38.3555C170.857 38.6977 171.272 38.8718 171.764 38.8718C172.37 38.8718 172.845 38.6257 173.175 38.1333H174.334C174.136 38.6617 173.805 39.088 173.337 39.4122C172.869 39.7364 172.34 39.8985 171.752 39.8985L171.758 39.9105Z" fill="#333333"/>
<path d="M180.866 34.4047V34.3987L180.872 34.4047H180.866Z" fill="#333333"/>
<path d="M180.866 34.4047V39.8264H179.804V35.3954H177.522L177.372 37.2206C177.306 38.0732 177.144 38.7216 176.88 39.1659C176.615 39.6102 176.195 39.8264 175.613 39.8264H175.331V38.8297H175.535C175.775 38.8297 175.949 38.7096 176.069 38.4695C176.183 38.2293 176.267 37.815 176.309 37.2266L176.549 34.4047H180.866Z" fill="#333333"/>
<path d="M184.559 41.9999C184.019 41.9999 183.544 41.8498 183.136 41.5435C182.728 41.2373 182.434 40.8291 182.247 40.3187H183.442C183.7 40.751 184.073 40.9732 184.559 40.9732C184.961 40.9732 185.286 40.8531 185.52 40.6129C185.754 40.3727 185.874 40.0665 185.874 39.6883V39.3941C185.55 39.7423 185.111 39.9164 184.559 39.9164C183.833 39.9164 183.256 39.6943 182.824 39.25C182.392 38.8057 182.169 38.1392 182.169 37.2566V34.3987H183.232V37.2566C183.232 38.3434 183.676 38.8837 184.559 38.8837C184.985 38.8837 185.316 38.7516 185.544 38.4935C185.772 38.2353 185.886 37.839 185.886 37.3227V34.4047H186.949V39.5622C186.949 40.2647 186.727 40.8471 186.276 41.3094C185.826 41.7717 185.256 42.0059 184.559 42.0059V41.9999Z" fill="#333333"/>
<path d="M191.95 39.8264H193.169L191.158 37.0045L193.013 34.3987H191.812L190.539 36.1339L189.29 34.3987H188.083L189.945 37.0045L187.921 39.8264H189.152L190.551 37.881L191.95 39.8264Z" fill="#333333"/>
<path fill-rule="evenodd" clip-rule="evenodd" d="M196.453 39.9165C195.679 39.9165 195.018 39.6463 194.472 39.0939C193.926 38.5476 193.649 37.8871 193.649 37.1126C193.649 36.3381 193.92 35.6776 194.472 35.1313C195.018 34.5849 195.679 34.3147 196.453 34.3147C197.228 34.3147 197.888 34.5909 198.429 35.1313C198.975 35.6776 199.245 36.3381 199.245 37.1126V39.8264H198.182V38.9679C198.05 39.238 197.828 39.4602 197.504 39.6403C197.18 39.8204 196.832 39.9105 196.459 39.9105L196.453 39.9165ZM195.222 38.3675C195.559 38.7097 195.973 38.8838 196.465 38.8838C196.958 38.8838 197.366 38.7157 197.696 38.3735C198.026 38.0312 198.189 37.6109 198.189 37.1126C198.189 36.6143 198.026 36.194 197.696 35.8517C197.366 35.5095 196.958 35.3414 196.465 35.3414C195.973 35.3414 195.547 35.5095 195.216 35.8517C194.88 36.194 194.718 36.6143 194.718 37.1126C194.718 37.6109 194.886 38.0252 195.222 38.3675Z" fill="#333333"/>
</g>
<defs>
<clipPath id="clip0_2732_25781">
<rect width="200" height="42" fill="white"/>
</clipPath>
</defs>
</svg>
